# xmcd
#
# Track frame offsets: 
#        150
#        18630
#        34901
#        57366
#        73676
#        99214
#        117204
#        135085
#        152070
#        171054
#        193132
#
# Disc length: 2867 seconds
#
# Revision: 0
# Processed by: cddbd v1.5.2PL0 Copyright (c) Steve Scherf et al.
# Submitted via: ExactAudioCopy v0.99pb4
#
DISCID=8d0b310b
DTITLE=Then Came The Wheel - I Think I Will Fall
DYEAR=2005
DGENRE=Blues
TTITLE0=Don't You Go (Walking Out With Me)
TTITLE1=Couldn't Love You More
TTITLE2=Covered In White
TTITLE3=That Miss (Was Another Near Miss For Me)
TTITLE4=Different Trains
TTITLE5=Green
TTITLE6=Dance With Me
TTITLE7=I Think I Will Fall
TTITLE8=Too Many People
TTITLE9=Time On My Own
TTITLE10=Me And You
EXTD=
EXTT0=
EXTT1=
EXTT2=
EXTT3=
EXTT4=
EXTT5=
EXTT6=
EXTT7=
EXTT8=
EXTT9=
EXTT10=
PLAYORDER=
